<svg width="1024" height="1024" viewBox="0 0 1024 1024" fill="none" xmlns="http://www.w3.org/2000/svg">
<rect x="1024" y="1024" width="1024" height="1024" rx="284" transform="rotate(180 1024 1024)" fill="#36E3D6"/>
<g clip-path="url(#clip0_642_10)">
<path d="M778.875 303.544C778.875 287.786 772.615 272.673 761.472 261.53C750.329 250.388 735.217 244.128 719.458 244.128C703.7 244.128 688.587 250.388 677.444 261.53C666.302 272.673 660.042 287.786 660.042 303.544C660.042 319.303 666.302 334.415 677.444 345.558C688.587 356.701 703.7 362.961 719.458 362.961C735.217 362.961 750.329 356.701 761.472 345.558C772.615 334.415 778.875 319.303 778.875 303.544Z" stroke="black" stroke-width="69.7658" stroke-linecap="round" stroke-linejoin="round"/>
<path d="M303.544 660.042C287.786 660.042 272.673 666.302 261.53 677.444C250.388 688.587 244.128 703.7 244.128 719.458C244.128 735.217 250.388 750.329 261.53 761.472C272.673 772.615 287.786 778.875 303.544 778.875C319.303 778.875 334.415 772.615 345.558 761.472C356.701 750.329 362.961 735.217 362.961 719.458C362.961 703.7 356.701 688.587 345.558 677.444C334.415 666.302 319.303 660.042 303.544 660.042Z" stroke="black" stroke-width="69.7658" stroke-linecap="round" stroke-linejoin="round"/>
<path d="M541.211 303.544H377.815C350.238 303.544 323.791 314.499 304.291 333.999C284.791 353.499 273.836 379.946 273.836 407.523C273.836 435.1 284.791 461.548 304.291 481.048C323.791 500.548 350.238 511.503 377.815 511.503H615.482C643.059 511.503 669.506 522.458 689.006 541.957C708.506 561.457 719.461 587.905 719.461 615.482C719.461 643.059 708.506 669.506 689.006 689.006C669.506 708.506 643.059 719.461 615.482 719.461H481.794" stroke="black" stroke-width="69.7658" stroke-linecap="round" stroke-linejoin="round"/>
</g>
<defs>
<clipPath id="clip0_642_10">
<rect width="713" height="713" fill="white" transform="matrix(-1 0 0 -1 868 868)"/>
</clipPath>
</defs>
</svg>
